<svg xmlns="http://www.w3.org/2000/svg" xmlns:xlink="http://www.w3.org/1999/xlink" viewBox="0 0 134.92 175.21"><defs><style>.cls-1{fill:none;}.cls-2{isolation:isolate;}.cls-3,.cls-53{fill:#00b1cd;}.cls-3{opacity:0.5;}.cls-4{fill:#f05d5d;}.cls-5{fill:url(#linear-gradient);}.cls-6{fill:#5cc7db;}.cls-7{fill:#1c4075;}.cls-8{fill:#fab448;}.cls-9{fill:url(#linear-gradient-2);}.cls-10{fill:url(#linear-gradient-3);}.cls-11{fill:#c0d8e4;}.cls-12{fill:#a6c2e2;}.cls-13{fill:#ef5658;}.cls-14{fill:#00adcb;}.cls-15{fill:url(#linear-gradient-4);}.cls-16{fill:url(#linear-gradient-5);}.cls-17{fill:#1a81c4;}.cls-18{fill:#005679;}.cls-19{fill:#e4e4e1;}.cls-20{fill:url(#linear-gradient-6);}.cls-21{fill:#ec5958;}.cls-22{fill:#1ebfd8;}.cls-23,.cls-28{fill:#004e80;}.cls-23,.cls-57,.cls-58,.cls-65{mix-blend-mode:multiply;}.cls-24{fill:url(#linear-gradient-7);}.cls-25{fill:url(#linear-gradient-8);}.cls-26{fill:url(#linear-gradient-9);}.cls-27{fill:#2fc0d9;}.cls-29{fill:#19447a;}.cls-30{fill:url(#linear-gradient-10);}.cls-31{fill:url(#linear-gradient-11);}.cls-32{fill:#00bddf;}.cls-33{fill:url(#linear-gradient-12);}.cls-34{fill:#f8a05b;}.cls-35{fill:#e6e6e3;}.cls-36{fill:url(#linear-gradient-13);}.cls-37{fill:#00b2cf;}.cls-38{fill:#0488b2;}.cls-39{fill:#9cc6e9;}.cls-40{fill:#0b213f;}.cls-41{fill:#ee477c;}.cls-42{fill:#04626c;}.cls-43{fill:#04525e;}.cls-44{fill:#00414f;}.cls-45{fill:#f2f2f2;}.cls-46,.cls-57{fill:#00b5a3;}.cls-47{fill:url(#linear-gradient-14);}.cls-48{fill:#418cc4;}.cls-49{fill:#92cdfa;}.cls-50{fill:url(#linear-gradient-15);}.cls-51{fill:#f7aea5;}.cls-52{fill:url(#linear-gradient-16);}.cls-54{fill:#f48154;}.cls-55{fill:#ee3f3a;}.cls-56{fill:#f48254;}.cls-58{opacity:0.75;fill:url(#linear-gradient-17);}.cls-59{fill:#fff;}.cls-60,.cls-65{fill:#c2d3e8;}.cls-61{fill:#f5a8a9;}.cls-62{fill:#dd9296;}.cls-63{fill:url(#linear-gradient-18);}.cls-64{fill:url(#linear-gradient-19);}.cls-66{fill:#e6e6e6;}.cls-67{clip-path:url(#clip-path);}.cls-68{fill:#0a87b1;}</style><linearGradient id="linear-gradient" x1="62.12" y1="13.05" x2="103.78" y2="13.05" gradientUnits="userSpaceOnUse"><stop offset="0" stop-color="#f48154"/><stop offset="0.19" stop-color="#f6954f"/><stop offset="0.43" stop-color="#f8a64b"/><stop offset="0.69" stop-color="#fab149"/><stop offset="1" stop-color="#fab448"/></linearGradient><linearGradient id="linear-gradient-2" x1="831.33" y1="51.88" x2="831.33" y2="17.7" gradientTransform="matrix(-1, 0, 0, 1, 940.33, 0)" gradientUnits="userSpaceOnUse"><stop offset="0" stop-color="#005679"/><stop offset="0.06" stop-color="#006386"/><stop offset="0.19" stop-color="#007e9f"/><stop offset="0.34" stop-color="#0093b2"/><stop offset="0.5" stop-color="#00a2c0"/><stop offset="0.69" stop-color="#00aac9"/><stop offset="1" stop-color="#00adcb"/></linearGradient><linearGradient id="linear-gradient-3" x1="835" y1="56.45" x2="835" y2="29.75" gradientTransform="matrix(-1, 0, 0, 1, 940.33, 0)" xlink:href="#linear-gradient"/><linearGradient id="linear-gradient-4" x1="97.21" y1="18.05" x2="55.5" y2="18.05" gradientTransform="translate(-52.26 25.03)" gradientUnits="userSpaceOnUse"><stop offset="0" stop-color="#fab448"/><stop offset="0.28" stop-color="#fab049"/><stop offset="0.56" stop-color="#f8a44c"/><stop offset="0.83" stop-color="#f69150"/><stop offset="1" stop-color="#f48154"/></linearGradient><linearGradient id="linear-gradient-5" x1="76.36" y1="28.97" x2="76.36" y2="5.48" gradientTransform="translate(-52.49 25.07)" gradientUnits="userSpaceOnUse"><stop offset="0" stop-color="#00b5a3"/><stop offset="0.34" stop-color="#00858d"/><stop offset="0.52" stop-color="#006a80"/><stop offset="0.66" stop-color="#006277"/><stop offset="0.88" stop-color="#004e5e"/><stop offset="1" stop-color="#00414f"/></linearGradient><linearGradient id="linear-gradient-6" x1="49.76" y1="46.65" x2="103" y2="46.65" gradientTransform="translate(-54.27 46.88) rotate(-16.07)" gradientUnits="userSpaceOnUse"><stop offset="0" stop-color="#f48154"/><stop offset="1" stop-color="#fab448"/></linearGradient><linearGradient id="linear-gradient-7" x1="96.46" y1="109.36" x2="111.21" y2="131.24" gradientTransform="matrix(1, 0, 0, 1, 0, 0)" xlink:href="#linear-gradient-5"/><linearGradient id="linear-gradient-8" x1="91.76" y1="120.3" x2="115.92" y2="120.3" gradientTransform="matrix(1, 0, 0, 1, 0, 0)" xlink:href="#linear-gradient-4"/><linearGradient id="linear-gradient-9" x1="111" y1="135.44" x2="96.67" y2="135.44" gradientTransform="matrix(1, 0, 0, 1, 0, 0)" xlink:href="#linear-gradient-5"/><linearGradient id="linear-gradient-10" x1="68.63" y1="156.03" x2="57.95" y2="128.78" gradientTransform="translate(56.05 -56.26) rotate(6.79)" gradientUnits="userSpaceOnUse"><stop offset="0" stop-color="#00414f"/><stop offset="0.2" stop-color="#006275"/><stop offset="0.43" stop-color="#008199"/><stop offset="0.65" stop-color="#0098b3"/><stop offset="0.85" stop-color="#00a5c2"/><stop offset="1" stop-color="#00aac8"/></linearGradient><linearGradient id="linear-gradient-11" x1="-69.28" y1="245.62" x2="-69.28" y2="229.51" gradientTransform="translate(275.45 -84.08) rotate(28.2)" gradientUnits="userSpaceOnUse"><stop offset="0" stop-color="#00414f"/><stop offset="0.1" stop-color="#056"/><stop offset="0.27" stop-color="#007489"/><stop offset="0.45" stop-color="#008ba5"/><stop offset="0.63" stop-color="#009cb8"/><stop offset="0.81" stop-color="#00a7c4"/><stop offset="1" stop-color="#00aac8"/></linearGradient><linearGradient id="linear-gradient-12" x1="68.35" y1="17.6" x2="85.25" y2="17.6" gradientTransform="translate(-54.27 46.88) rotate(-16.07)" xlink:href="#linear-gradient"/><linearGradient id="linear-gradient-13" x1="98.37" y1="120.43" x2="109.19" y2="120.43" gradientTransform="matrix(1, 0, 0, 1, 0, 0)" xlink:href="#linear-gradient-5"/><linearGradient id="linear-gradient-14" x1="-214.69" y1="-313.86" x2="-186.89" y2="-313.86" gradientTransform="matrix(0.72, -0.69, 0.69, 0.72, 430.43, 93.89)" gradientUnits="userSpaceOnUse"><stop offset="0" stop-color="#00b5a3"/><stop offset="0.15" stop-color="#00b1a0"/><stop offset="0.31" stop-color="#00a497"/><stop offset="0.48" stop-color="#009088"/><stop offset="0.64" stop-color="#007273"/><stop offset="0.81" stop-color="#004d58"/><stop offset="0.85" stop-color="#00414f"/></linearGradient><linearGradient id="linear-gradient-15" x1="-206.35" y1="-303.75" x2="-186.91" y2="-303.75" gradientTransform="matrix(0.72, -0.69, 0.69, 0.72, 430.43, 93.89)" gradientUnits="userSpaceOnUse"><stop offset="0" stop-color="#92cdfa"/><stop offset="0.15" stop-color="#8ecaf6"/><stop offset="0.3" stop-color="#84bfe9"/><stop offset="0.46" stop-color="#72aed5"/><stop offset="0.61" stop-color="#5996b7"/><stop offset="0.77" stop-color="#397892"/><stop offset="0.93" stop-color="#125365"/><stop offset="1" stop-color="#00414f"/></linearGradient><linearGradient id="linear-gradient-16" x1="27.28" y1="102.93" x2="52.46" y2="102.93" gradientTransform="translate(79.2 -0.21) rotate(42.05)" gradientUnits="userSpaceOnUse"><stop offset="0" stop-color="#071a23"/><stop offset="1" stop-color="#005679"/></linearGradient><linearGradient id="linear-gradient-17" x1="63.53" y1="154.46" x2="63.53" y2="20.51" gradientUnits="userSpaceOnUse"><stop offset="0" stop-color="#00aac8"/><stop offset="0.22" stop-color="#88d2e0"/><stop offset="0.33" stop-color="#cae6eb"/><stop offset="0.39" stop-color="#b1d7de"/><stop offset="0.55" stop-color="#73b2bf"/><stop offset="0.7" stop-color="#4195a6"/><stop offset="0.83" stop-color="#1e8094"/><stop offset="0.93" stop-color="#087489"/><stop offset="1" stop-color="#006f85"/></linearGradient><linearGradient id="linear-gradient-18" x1="72.27" y1="150.03" x2="72.27" y2="125.93" gradientUnits="userSpaceOnUse"><stop offset="0" stop-color="#005679"/><stop offset="1" stop-color="#071a23"/></linearGradient><linearGradient id="linear-gradient-19" x1="76.93" y1="126.22" x2="76.93" y2="102.15" gradientUnits="userSpaceOnUse"><stop offset="0" stop-color="#f48154"/><stop offset="0.15" stop-color="#f47d52"/><stop offset="0.31" stop-color="#f3714e"/><stop offset="0.47" stop-color="#f15c45"/><stop offset="0.63" stop-color="#ee403a"/><stop offset="0.64" stop-color="#ee3f3a"/><stop offset="0.97" stop-color="#ed1c24"/></linearGradient><clipPath id="clip-path"><rect class="cls-1" x="55.38" y="37.6" width="17.71" height="13.37"/></clipPath></defs><title>Recurso 1</title><g class="cls-2"><g id="Capa_2" data-name="Capa 2"><g id="Layer_1" data-name="Layer 1"><path class="cls-3" d="M80.62,24.52s2.34-.39,3.21-1.82,1.46-8.33,4.09-8.59,2.78,3.25,2.78,3.25S91,2.13,99.32,2.13s8.47,13.54,8.47,13.54-.58-4.17,2.92-4.43S113.93,18,113.93,18s.29-3.38,3.07-3.38,3.12,4,3.07,5.33c-.07,1.56,1.34,2.63,3,3.35a.69.69,0,0,1-.34,1.33Z"/><path class="cls-4" d="M88.48,111.7c-1.17,0-1.87-1-1.29-1.75l0,0c1-1.4,1.65-8.15,4.63-8.4a2.8,2.8,0,0,1,1.34.18c.94.38,2.09,0,2.24-.85.79-4.42,3-11,9.32-11,9.43,0,9.6,13.25,9.6,13.25s-.66-4.08,3.31-4.33,3.64,6.62,3.64,6.62.33-3.31,3.47-3.31,3.54,3.94,3.48,5.22a2.86,2.86,0,0,0,1.73,2.49c1.13.68.51,2.08-.93,2.07Z"/><path class="cls-5" d="M62.12,22.92a4.58,4.58,0,0,0,2.8-1.62c.76-1.27,1.27-7.38,3.57-7.61a1.82,1.82,0,0,1,.33,0,2.59,2.59,0,0,0,2.68-2c.78-3.86,2.63-8.58,6.93-8.58,7.26,0,7.39,12,7.39,12s-.51-3.69,2.54-3.92c1.46-.11,2.16,1.24,2.5,2.68a1.12,1.12,0,0,0,1.68.69,2.29,2.29,0,0,1,1.3-.37c2.42,0,2.73,3.57,2.68,4.73-.15,3.33,7.26,4.15,7.26,4.15Z"/><path class="cls-6" d="M5.12,112.52l5.58,5.36a1.94,1.94,0,0,1-2.92,2.54l-1.56-1.5a2.75,2.75,0,0,0-3.81,4l7,6.7.34.32L29,148.41a2.75,2.75,0,1,0,3.82-4l-4.11-3.95a1.94,1.94,0,0,1,2.41-3l1.84,1.76a2.75,2.75,0,0,0,3.81-4l-.61-.58a1.94,1.94,0,0,1,2.91-2.55l-1.41-1.36L19.55,113.41l-1.41-1.36a1.95,1.95,0,0,1-2.43,3l-.15-.15-6.63-6.37a2.75,2.75,0,0,0-3.81,4Z"/><path class="cls-6" d="M17.82,111.74l19.27,18.5.34.32,7,6.69a2.74,2.74,0,0,0,3.89-.08h0a2.75,2.75,0,0,0-.08-3.89L43.73,129a1,1,0,0,0,1.05-1.59L42.33,125l-.12-.12L27.46,110.76a1,1,0,0,0-1.55,1.12l-4.28-4.11a2.75,2.75,0,0,0-3.89.07h0A2.76,2.76,0,0,0,17.82,111.74Z"/><path class="cls-7" d="M21.19,118.83l2.11,2a1,1,0,0,1-1.24,1.55l-.95-.91a1.42,1.42,0,0,0-2,2l.31.31a1,1,0,0,1-.08,1.28h0a1,1,0,0,1-1.42,0l.73.7,9.32,9,.73.7a1,1,0,0,1,0-1.42h0A1,1,0,0,1,30,134l.08.07,3.42,3.29a1.42,1.42,0,0,0,2-2.05l-2.88-2.77a1,1,0,0,1,.09-1.27,1,1,0,0,1,1.42,0l.8.77a1.43,1.43,0,0,0,2,0h0a1.43,1.43,0,0,0,0-2l-3.6-3.45-.17-.17-9.94-9.54a1.41,1.41,0,0,0-2,0h0A1.4,1.4,0,0,0,21.19,118.83Z"/><path class="cls-7" d="M13.24,124.59l2.31,2.21a.5.5,0,0,0-.54.82l1.26,1.22.06,0,7.61,7.31a.5.5,0,0,0,.71,0,.52.52,0,0,0,.09-.56l2.2,2.12a1.42,1.42,0,1,0,2-2.05L19,126.15,18.8,126l-3.59-3.45a1.42,1.42,0,1,0-2,2Z"/><path class="cls-8" d="M17.5,128.49l5,4.81a1.9,1.9,0,0,0,2.68-.05h0a1.9,1.9,0,0,0-.06-2.68l-5-4.81Z"/><path class="cls-8" d="M18,128.93l-6.11-5.86a1.9,1.9,0,0,1,0-2.68h0a1.88,1.88,0,0,1,2.67,0l6.11,5.86Z"/><path class="cls-8" d="M20.49,126.14l-4.95-4.74a1.34,1.34,0,0,0,1.89,0h0a1.34,1.34,0,0,0,0-1.89l4.94,4.75Z"/><path class="cls-8" d="M16.51,122.33l4.95,4.75a1.34,1.34,0,0,1,0-1.89h0a1.33,1.33,0,0,1,1.88,0l-4.94-4.74Z"/><path class="cls-8" d="M15.21,130l-4.94-4.75a1.34,1.34,0,0,0,1.89,0h0a1.33,1.33,0,0,0,0-1.88L17.06,128Z"/><path class="cls-8" d="M11.24,126.15l5,4.75a1.33,1.33,0,0,1,0-1.89h0A1.33,1.33,0,0,1,18,129l-4.94-4.74Z"/><path class="cls-8" d="M19.36,121.36l5,4.82a1.88,1.88,0,0,0,2.67-.06h0a1.89,1.89,0,0,0-.05-2.67l-5-4.82Z"/><path class="cls-8" d="M19.59,121.58l-5-4.82a1.89,1.89,0,0,1-.06-2.67h0a1.91,1.91,0,0,1,2.68-.06l5,4.82Z"/><path class="cls-8" d="M8.77,129l5,4.81a1.88,1.88,0,0,0,2.67-.05h0a1.88,1.88,0,0,0-.05-2.67l-5-4.82Z"/><path class="cls-8" d="M9,129.25l-5-4.82a1.9,1.9,0,0,1,0-2.68h0a1.89,1.89,0,0,1,2.67,0l5,4.82Z"/><path class="cls-8" d="M7.26,127.52l1.68,1.61.08.08,1.69,1.62a.67.67,0,0,1,0,.94h0a.66.66,0,0,1-.94,0L8.1,130.17,8,130.09l-1.69-1.61a.66.66,0,0,1,0-.94h0A.66.66,0,0,1,7.26,127.52Z"/><path class="cls-9" d="M118.6,51.88h7.85c3.08,0,8.59-2,8.47-9.54-.1-6.47-6.16-8.16-7.85-7.09,0,0-1.59-9.13-9.7-8.77,0,0-1.8-8.78-11.19-8.78S94,24.63,94,30.33c0,0-8.83-2.36-10.68,7.9-1.31,7.31,3.9,13.65,9,13.65Z"/><path class="cls-10" d="M94.35,41.52,105.6,29.75s10.88,11.59,10.71,11.77h-5.54V56.45H99.89V41.52Z"/><path class="cls-11" d="M59.18,34.41l9.19-22.35L49,17.22a3.53,3.53,0,0,0-1.75,5.94Z"/><path class="cls-11" d="M20.51,24.23,23,1.14l13.82,13a3.49,3.49,0,0,1-1.25,6Z"/><path class="cls-12" d="M20.51,24.23,59.18,34.41,45.67,19.67a6.67,6.67,0,0,0-7.08-1.79Z"/><path class="cls-13" d="M23,1.12,68.38,12,45,22a5.77,5.77,0,0,1-7-1.78Z"/><path class="cls-14" d="M37.37,22.87,2.15,33a3,3,0,0,0-2,3.68L7.19,61.25a3,3,0,0,0,3.68,2L24.2,59.44l.43-.12-.12-.43-13.76,4a2.52,2.52,0,0,1-3.13-1.72L.54,36.57a2.54,2.54,0,0,1,1.73-3.13L37.49,23.29A2.54,2.54,0,0,1,40.62,25l7.07,24.56A2.53,2.53,0,0,1,46,52.71l-13.76,4,.13.43.42-.12,13.34-3.84a3,3,0,0,0,2-3.68L41,24.9A3,3,0,0,0,37.37,22.87Z"/><rect class="cls-15" x="3.24" y="27.78" width="41.7" height="30.61" rx="11.17" transform="translate(-10.99 8.35) rotate(-16.07)"/><rect class="cls-16" x="5.54" y="30.55" width="36.64" height="23.49" transform="translate(-10.78 8.26) rotate(-16.07)"/><polygon class="cls-17" points="57.43 62.6 6.28 77.34 7.77 61.51 47.76 49.99 57.43 62.6"/><polygon class="cls-14" points="52.01 58.12 8.73 70.59 9.51 61.92 46.73 51.19 52.01 58.12"/><path class="cls-14" d="M39.82,66.15,22.86,71a.44.44,0,0,1-.56-.44l.08-2.79a.43.43,0,0,1,.32-.41L38,63a.44.44,0,0,1,.49.18l1.56,2.32A.44.44,0,0,1,39.82,66.15Z"/><polygon class="cls-18" points="40.24 60.68 19.86 66.55 19.79 65.17 39.57 59.47 40.24 60.68"/><polygon class="cls-18" points="13.19 68.47 10.13 69.36 10.25 67.92 13.3 67.03 13.19 68.47"/><polygon class="cls-18" points="17.36 65.37 10.29 67.41 10.43 65.96 17.33 63.97 17.36 65.37"/><polygon class="cls-18" points="15.51 63.91 10.46 65.37 10.62 63.92 15.46 62.52 15.51 63.91"/><polygon class="cls-19" points="47.94 54.57 42.77 56.06 42.07 54.85 47.07 53.41 47.94 54.57"/><polygon class="cls-18" points="20.17 62.57 17.18 63.43 17.11 62.05 20.02 61.21 20.17 62.57"/><polygon class="cls-18" points="13.65 62.46 10.67 63.32 10.77 61.88 13.72 61.04 13.65 62.46"/><polygon class="cls-18" points="17.95 61.22 14.97 62.08 15.01 60.66 17.9 59.83 17.95 61.22"/><polygon class="cls-18" points="21.89 60.09 18.91 60.95 18.83 59.56 21.72 58.73 21.89 60.09"/><polygon class="cls-18" points="25.91 58.93 22.93 59.79 22.72 58.44 25.61 57.61 25.91 58.93"/><polygon class="cls-18" points="29.88 57.79 26.9 58.65 26.57 57.33 29.46 56.5 29.88 57.79"/><polygon class="cls-18" points="33.9 56.63 30.91 57.49 30.46 56.21 33.35 55.38 33.9 56.63"/><polygon class="cls-19" points="37.84 55.49 34.85 56.35 34.28 55.11 37.17 54.28 37.84 55.49"/><polygon class="cls-19" points="41.85 54.34 38.87 55.2 38.17 53.99 41.06 53.16 41.85 54.34"/><polygon class="cls-19" points="46.71 52.95 43.73 53.8 42.92 52.62 45.81 51.79 46.71 52.95"/><polygon class="cls-18" points="24.26 61.39 21.27 62.25 21.1 60.9 24 60.06 24.26 61.39"/><polygon class="cls-18" points="28.42 60.19 25.44 61.05 25.16 59.73 28.06 58.89 28.42 60.19"/><polygon class="cls-18" points="32.52 59.02 29.53 59.87 29.14 58.58 32.05 57.74 32.52 59.02"/><polygon class="cls-19" points="36.64 57.83 33.66 58.69 33.17 57.42 36.07 56.58 36.64 57.83"/><polygon class="cls-19" points="40.73 56.65 37.75 57.51 37.15 56.27 40.06 55.43 40.73 56.65"/><polygon class="cls-18" points="22.8 63.8 19.47 64.76 19.4 63.37 22.63 62.44 22.8 63.8"/><polygon class="cls-18" points="26.93 62.61 23.79 63.52 23.59 62.17 26.63 61.29 26.93 62.61"/><polygon class="cls-19" points="49.19 56.2 42.12 58.24 41.4 57.03 48.32 55.04 49.19 56.2"/><polygon class="cls-18" points="35.41 60.17 32.09 61.13 31.64 59.85 34.87 58.92 35.41 60.17"/><polygon class="cls-18" points="31.21 61.38 27.88 62.34 27.56 61.02 30.79 60.09 31.21 61.38"/><polygon class="cls-19" points="39.54 58.98 36.41 59.88 35.83 58.64 38.87 57.76 39.54 58.98"/><polygon class="cls-18" points="18.45 66.96 15.39 67.84 15.45 66.42 18.42 65.56 18.45 66.96"/><polygon class="cls-19" points="44.83 59.36 41.77 60.24 41.05 59.04 44.02 58.19 44.83 59.36"/><polygon class="cls-19" points="50.37 57.76 47.36 58.63 46.51 57.47 49.47 56.61 50.37 57.76"/><path class="cls-20" d="M56.9,64.08,7.59,78.28a1,1,0,0,1-1.23-.68l-.09-.3L57.43,62.56l.1.37A.92.92,0,0,1,56.9,64.08Z"/><path class="cls-21" d="M25.46,71.77l12.12-3.5h0a.55.55,0,0,1-.38.69L26.15,72.15a.57.57,0,0,1-.69-.38Z"/><path class="cls-22" d="M115.92,109.92H91.75a2,2,0,0,0-2,2v16.85a2,2,0,0,0,2,2h9.44v-.3H91.75a1.66,1.66,0,0,1-1.66-1.66V111.88a1.66,1.66,0,0,1,1.66-1.67h24.17a1.66,1.66,0,0,1,1.66,1.67v16.85a1.66,1.66,0,0,1-1.66,1.66h-9.44v.3h9.44a2,2,0,0,0,2-2V111.88A2,2,0,0,0,115.92,109.92Z"/><rect class="cls-7" x="101.19" y="129.02" width="5.28" height="5.8"/><rect class="cls-23" x="101.19" y="128.98" width="5.28" height="2.18"/><rect class="cls-24" x="90.09" y="110.21" width="27.5" height="20.18" rx="7.37"/><rect class="cls-25" x="91.76" y="112.02" width="24.16" height="16.57"/><path class="cls-26" d="M111,136.57H96.67l.11-.31a2.88,2.88,0,0,1,2.72-1.94h8.67a2.88,2.88,0,0,1,2.72,1.94Z"/><path class="cls-22" d="M104.4,129.52a.56.56,0,0,1-.56.56.57.57,0,0,1-.57-.56.58.58,0,0,1,.57-.57A.57.57,0,0,1,104.4,129.52Z"/><polygon class="cls-27" points="116.29 140.92 91.53 140.92 93.62 136.54 114 136.54 116.29 140.92"/><polygon class="cls-28" points="114.9 140.24 92.84 140.24 94.39 136.9 113.36 136.9 114.9 140.24"/><polygon class="cls-19" points="109.02 139.91 98.63 139.91 98.79 139.35 108.86 139.35 109.02 139.91"/><polygon class="cls-19" points="95.23 139.91 93.67 139.91 93.92 139.35 95.48 139.35 95.23 139.91"/><polygon class="cls-19" points="97.61 139.16 94.01 139.16 94.27 138.6 97.79 138.6 97.61 139.16"/><polygon class="cls-19" points="96.94 138.37 94.37 138.37 94.64 137.81 97.11 137.81 96.94 138.37"/><polygon class="cls-19" points="113.47 138.37 110.84 138.37 110.67 137.81 113.22 137.81 113.47 138.37"/><polygon class="cls-19" points="99.31 138.37 97.79 138.37 97.95 137.81 99.43 137.81 99.31 138.37"/><polygon class="cls-19" points="96.26 137.58 94.74 137.58 94.98 137.03 96.49 137.03 96.26 137.58"/><polygon class="cls-19" points="98.46 137.58 96.94 137.58 97.15 137.03 98.62 137.03 98.46 137.58"/><polygon class="cls-19" points="100.46 137.58 98.94 137.58 99.09 137.03 100.56 137.03 100.46 137.58"/><polygon class="cls-19" points="102.51 137.58 100.99 137.58 101.08 137.03 102.55 137.03 102.51 137.58"/><polygon class="cls-19" points="104.54 137.58 103.02 137.58 103.04 137.03 104.51 137.03 104.54 137.58"/><polygon class="cls-19" points="106.58 137.58 105.06 137.58 105.02 137.03 106.5 137.03 106.58 137.58"/><polygon class="cls-19" points="108.59 137.58 107.07 137.58 106.97 137.03 108.44 137.03 108.59 137.58"/><polygon class="cls-19" points="110.64 137.58 109.11 137.58 108.95 137.03 110.42 137.03 110.64 137.58"/><polygon class="cls-19" points="113.11 137.59 111.6 137.58 111.37 137.03 112.84 137.03 113.11 137.59"/><polygon class="cls-19" points="101.4 138.37 99.88 138.37 99.98 137.81 101.46 137.81 101.4 138.37"/><polygon class="cls-19" points="103.52 138.37 102 138.37 102.05 137.81 103.53 137.81 103.52 138.37"/><polygon class="cls-19" points="105.61 138.37 104.09 138.37 104.08 137.81 105.56 137.81 105.61 138.37"/><polygon class="cls-19" points="107.71 138.37 106.19 138.37 106.13 137.81 107.61 137.81 107.71 138.37"/><polygon class="cls-19" points="109.8 138.37 108.28 138.37 108.16 137.81 109.64 137.81 109.8 138.37"/><polygon class="cls-19" points="100.39 139.16 98.69 139.16 98.84 138.6 100.49 138.6 100.39 139.16"/><polygon class="cls-19" points="102.49 139.16 100.89 139.16 100.98 138.6 102.53 138.6 102.49 139.16"/><polygon class="cls-19" points="113.84 139.16 110.23 139.16 110.06 138.6 113.58 138.6 113.84 139.16"/><polygon class="cls-19" points="106.82 139.16 105.12 139.16 105.08 138.6 106.73 138.6 106.82 139.16"/><polygon class="cls-19" points="104.67 139.16 102.98 139.16 103 138.6 104.65 138.6 104.67 139.16"/><polygon class="cls-19" points="108.92 139.16 107.32 139.16 107.22 138.6 108.77 138.6 108.92 139.16"/><polygon class="cls-19" points="97.91 139.91 96.35 139.91 96.57 139.35 98.09 139.35 97.91 139.91"/><polygon class="cls-19" points="111.36 139.91 109.8 139.91 109.62 139.35 111.13 139.35 111.36 139.91"/><polygon class="cls-19" points="114.18 139.91 112.65 139.91 112.4 139.35 113.92 139.35 114.18 139.91"/><path class="cls-29" d="M91.53,140.9h24.75a0,0,0,0,1,0,0v0a.54.54,0,0,1-.54.54H92.07a.54.54,0,0,1-.54-.54v0A0,0,0,0,1,91.53,140.9Z"/><circle class="cls-4" cx="102.3" cy="92.53" r="10.38" transform="translate(-17.21 23.65) rotate(-12.17)"/><path class="cls-30" d="M112.08,81.93c-.88.56-1.76,1.1-2.63,1.67-.27.17-.43.18-.76-.06a11.59,11.59,0,0,0-2.18-1.27c-.47-.21-.62-.32-.6-.72.06-1,.07-2,.12-3,0-.39-.16-.51-.77-.44a6.47,6.47,0,0,1-2.86-.32c-.64-.23-.85-.21-.94.21-.22,1-.49,2-.71,3.08a.55.55,0,0,1-.48.48c-.91.22-1.79.51-2.69.74a.56.56,0,0,1-.46-.14c-.8-.83-1.59-1.68-2.4-2.55a12.63,12.63,0,0,0-3.42,2.55c-.08.08,0,.38,0,.52.51.86,1,1.72,1.58,2.56.21.33.2.54-.07.92a13.35,13.35,0,0,0-1.23,2.22c-.14.29-.27.37-.54.36-1.16,0-2.31-.06-3.53-.09-.13.57-.29,1.13-.37,1.69-.1.79-.13,1.59-.2,2.39,0,.32.1.48.43.54,1,.21,2.06.45,3.08.7a.61.61,0,0,1,.36.36c.25.87.44,1.75.7,2.61a.54.54,0,0,1-.17.65c-.84.77-1.66,1.56-2.52,2.37a13,13,0,0,0,2.73,3.63c1-.6,1.91-1.18,2.83-1.81a.7.7,0,0,1,.94,0c.73.48,1.5.9,2.28,1.31.26.14.38.24.36.56-.06,1.15-.08,2.47-.12,3.69l.55.06,3.46.35c.36,0,.53-.06.6-.46.19-1,.46-2,.68-2.93.06-.3.19-.42.53-.48a22.06,22.06,0,0,0,2.54-.67c.31-.1.48-.09.68.13.7.76,1.42,1.5,2.12,2.27.22.24.4.33.76-.06a10.41,10.41,0,0,1,2.64-2c.41-.23.44-.42.25-.71-.56-.87-1.09-1.76-1.66-2.63a.46.46,0,0,1,0-.62c.51-.81,1-1.65,1.45-2.5.14-.27.25-.41.59-.39,1.13,0,2.27,0,3.41.06l.19-.47c.09-.5.21-1,.27-1.49.08-.73.11-1.46.17-2.18,0-.28-.09-.38-.35-.44-1.15-.24-2.29-.5-3.32-.73-.34-1.11-.67-2.15-1-3.19a.59.59,0,0,1,.12-.5c.74-.73,1.49-1.44,2.26-2.13.36-.32.34-.57-.4-1.09a4.48,4.48,0,0,1-1.6-2.11C112.58,81.62,112.35,81.75,112.08,81.93ZM109.57,96.8A8.67,8.67,0,1,1,106.32,85,8.67,8.67,0,0,1,109.57,96.8Z"/><path class="cls-31" d="M95.12,88.56a8.06,8.06,0,1,0,11-3A8.07,8.07,0,0,0,95.12,88.56Zm12.09,6.15a5.54,5.54,0,0,1-10.28-4.15,5.54,5.54,0,0,1,10.28,4.15Z"/><path class="cls-32" d="M98,98.5a7.32,7.32,0,0,0,6.58.83l0-.13a7.15,7.15,0,0,1-8.34-10.75l-.12-.08A7.29,7.29,0,0,0,98,98.5Z"/><path class="cls-32" d="M100.52,85.5a7.21,7.21,0,0,1,4.62.48l.06-.12a7.3,7.3,0,0,0-4.72-.5Z"/><path class="cls-32" d="M108,96.49l.12.08a7.28,7.28,0,0,0,.43-7.49l-.13.07A7.12,7.12,0,0,1,108,96.49Z"/><path class="cls-32" d="M96.49,84.27a10.05,10.05,0,0,0-4.39,8h.19a9.84,9.84,0,0,1,18-5.25l.16-.11A10,10,0,0,0,96.49,84.27Z"/><path class="cls-32" d="M111.85,94.05a9.9,9.9,0,0,1-2.95,5.66l.13.14a10.08,10.08,0,0,0,3-5.77Z"/><path class="cls-33" d="M23,35,26,38.4a.74.74,0,0,0,.64.24l4.58-.59a.73.73,0,0,1,.72,1.1l-2.31,4a.69.69,0,0,0,0,.68l2,4.17a.73.73,0,0,1-.81,1l-4.52-1a.76.76,0,0,0-.66.18L22.25,51.4A.73.73,0,0,1,21,50.94l-.47-4.59a.73.73,0,0,0-.37-.57l-4.05-2.21a.74.74,0,0,1,.05-1.32l4.22-1.86a.76.76,0,0,0,.43-.54l.85-4.54A.74.74,0,0,1,23,35Z"/><circle class="cls-13" cx="104.51" cy="67.12" r="16.82" transform="translate(15.8 154.06) rotate(-77.14)"/><circle class="cls-17" cx="104.51" cy="67.12" r="12.1"/><circle class="cls-34" cx="104.51" cy="67.12" r="6.08"/><circle class="cls-4" cx="104.51" cy="67.12" r="3.75"/><polygon class="cls-13" points="118.26 53.54 117.51 49.65 123.02 44.14 123.77 48.03 118.26 53.54"/><polygon class="cls-13" points="118.36 53.64 122.26 54.39 127.77 48.88 123.87 48.13 118.36 53.64"/><rect class="cls-35" x="114.05" y="43.84" width="0.42" height="27.59" transform="translate(74.22 -63.92) rotate(45)"/><path class="cls-36" d="M106.53,125.13a6,6,0,0,1-3.09.69c-2.86,0-5.07-1.78-5.07-4.86a5.8,5.8,0,0,1,6-5.93c2.47,0,4.84,1.34,4.84,4.22,0,2.31-1.24,3.94-3.3,3.94-.72,0-1.25-.25-1.38-.79a2.16,2.16,0,0,1-1.77.78c-1.08,0-1.76-.72-1.76-2,0-2,1.32-3.54,2.78-3.54.78,0,1.2.3,1.33.71l.17-.58h1.53l-.81,3.35c-.16.65-.08.86.33.86.84,0,1.54-1.13,1.54-2.65,0-2-1.44-3.08-3.62-3.08-2.69,0-4.39,2-4.39,4.75a3.39,3.39,0,0,0,3.68,3.59,6.15,6.15,0,0,0,2.76-.54ZM102.61,121c0,.62.21.91.69.91.63,0,1-.6,1.26-1.49.3-1.17.11-1.61-.54-1.61S102.61,119.93,102.61,121Z"/><path class="cls-17" d="M22.8,115.57H39.53A2.46,2.46,0,0,0,41.87,113V74.63a2.46,2.46,0,0,0-2.33-2.55H22.8a2.46,2.46,0,0,0-2.33,2.55V113A2.46,2.46,0,0,0,22.8,115.57Z"/><rect class="cls-14" x="21.61" y="77.4" width="19.1" height="32.85" transform="translate(62.33 187.65) rotate(-180)"/><rect class="cls-37" x="29.54" y="74.35" width="3.52" height="0.49" transform="translate(62.59 149.2) rotate(-180)"/><path class="cls-38" d="M27.05,96.21Q32.42,102,37.8,107.8c1,1.08,2,2.16,3,3.25l0-7.45-1.09-1.18L31,93.1,21.59,82.91l0,7.45Z"/><path class="cls-38" d="M40.69,80.73l-3.13-3.37L32,77.4l3.18,3.43,5.53,6Z"/><path class="cls-38" d="M21.69,102.2l7.49,8.08,2.39,0-3.35-3.61L21.59,99.5v2.61Z"/><path class="cls-18" d="M31.64,113.53l-3.2,0a.65.65,0,0,1-.62-.68v-.19a.65.65,0,0,1,.62-.69l3.2,0a.65.65,0,0,1,.62.68v.19A.65.65,0,0,1,31.64,113.53Z"/><path class="cls-14" d="M31.64,112a.65.65,0,0,1,.62.68v.19a.65.65,0,0,1-.62.69l-3.2,0a.65.65,0,0,1-.62-.68v-.19a.65.65,0,0,1,.62-.69l3.2,0m0-.13-3.21,0a.78.78,0,0,0-.73.82v.19a.78.78,0,0,0,.74.81l3.21,0a.77.77,0,0,0,.73-.81v-.19a.78.78,0,0,0-.74-.81Z"/><polygon class="cls-39" points="16.46 95.72 9.79 93.72 11.6 100.44 16.46 95.72"/><polygon class="cls-40" points="11.49 94.09 9.79 93.72 10.11 95.43 11.49 94.09"/><rect class="cls-41" x="36.61" y="119.25" width="6.78" height="11.09" rx="3.39" transform="translate(155.64 186.46) rotate(135.85)"/><rect class="cls-42" x="26.19" y="91.77" width="2.26" height="33.46" transform="translate(-67.91 49.75) rotate(-44.2)"/><rect class="cls-43" x="24.56" y="93.34" width="2.26" height="33.46" transform="translate(-69.46 49.07) rotate(-44.2)"/><rect class="cls-44" x="22.94" y="94.92" width="2.26" height="33.46" transform="translate(-71.02 48.38) rotate(-44.2)"/><rect class="cls-45" x="33.85" y="121.26" width="6.78" height="1.37" transform="translate(148.9 183.5) rotate(135.85)"/><polygon class="cls-44" points="58.04 15.9 81.31 0 62.26 10.42 58.04 15.9"/><path class="cls-46" d="M53.6,3S75.85,1,81.31,0c0,0-12,14.67-14.89,19.78l-4.16-9.36L60.41,7.91Z"/><polygon class="cls-47" points="58.04 15.9 62.26 10.42 81.31 0 60.41 7.91 58.04 15.9"/><polygon class="cls-48" points="71.12 17.48 87.39 6.36 74.07 13.65 71.12 17.48"/><path class="cls-49" d="M68,8.44S83.57,7.08,87.39,6.36c0,0-8.39,10.26-10.42,13.84l-2.9-6.55-1.3-1.76Z"/><polygon class="cls-50" points="71.12 17.48 74.07 13.65 87.39 6.36 72.77 11.89 71.12 17.48"/><path class="cls-51" d="M45.37,16.26a4.12,4.12,0,0,1-2.12-.05,3.14,3.14,0,0,1-2.51-4,3.89,3.89,0,0,1,4.84-2.89c1.59.4,2.92,1.65,2.46,3.52-.37,1.5-1.44,2.36-2.78,2-.46-.12-.77-.37-.76-.74a1.42,1.42,0,0,1-1.28.22,1.16,1.16,0,0,1-.82-1.59,2.22,2.22,0,0,1,2.38-1.86c.5.13.73.39.74.68l.21-.35,1,.24-1.07,2.05c-.21.4-.19.54.08.61.54.13,1.18-.49,1.42-1.47.32-1.29-.44-2.23-1.85-2.58a2.9,2.9,0,0,0-3.62,2.37,2.28,2.28,0,0,0,1.81,2.93,4.08,4.08,0,0,0,1.88.09ZM43.48,13c-.1.4,0,.62.3.7s.78-.22,1.06-.77c.39-.71.33-1-.09-1.13S43.66,12.26,43.48,13Z"/><rect class="cls-52" x="37.66" y="86.58" width="4.42" height="32.7" transform="translate(-58.68 53.2) rotate(-42.05)"/><polygon class="cls-8" points="30.56 89.31 27.28 92.27 22.85 85.8 24.58 84.24 30.56 89.31"/><rect class="cls-53" x="27.43" y="91.32" width="4.42" height="0.54" transform="translate(-53.71 43.43) rotate(-42.05)"/><path class="cls-54" d="M22.85,85.8l.61.9a9.19,9.19,0,0,0,1.17-.91,9,9,0,0,0,.81-.82l-.86-.73Z"/><path class="cls-55" d="M24,85.13a13.88,13.88,0,1,1,1-19.61A13.89,13.89,0,0,1,24,85.13Zm-17.18-19a11.77,11.77,0,1,0,16.63.85A11.78,11.78,0,0,0,6.85,66.08Z"/><path class="cls-56" d="M23.08,84.08A12.47,12.47,0,1,1,24,66.47,12.46,12.46,0,0,1,23.08,84.08Zm-16-17.73a11.41,11.41,0,1,0,16.12.83A11.42,11.42,0,0,0,7.09,66.35Z"/><circle class="cls-57" cx="14.75" cy="74.81" r="11.54"/><path class="cls-58" d="M90.25,20.51H36.82a7.69,7.69,0,0,0-7.46,7.85V146.6a7.68,7.68,0,0,0,7.45,7.85H90.25a7.69,7.69,0,0,0,7.46-7.85V28.36A7.69,7.69,0,0,0,90.25,20.51Z"/><path class="cls-59" d="M88.61,22.69H38.83c-3.82,0-6.95,3.41-6.95,7.58V144.46c0,4.17,3.12,7.59,6.94,7.59H88.61c3.82,0,7-3.41,7-7.58V30.27C95.56,26.1,92.43,22.69,88.61,22.69Z"/><path class="cls-60" d="M48.42,89.84H43.71a2.48,2.48,0,0,1-2.48-2.47V82.66a2.48,2.48,0,0,1,2.48-2.48h4.71a2.48,2.48,0,0,1,2.47,2.48v4.71A2.48,2.48,0,0,1,48.42,89.84Zm-4.71-8.66a1.48,1.48,0,0,0-1.48,1.48v4.71a1.48,1.48,0,0,0,1.48,1.47h4.71a1.47,1.47,0,0,0,1.47-1.47V82.66a1.47,1.47,0,0,0-1.47-1.48Z"/><path class="cls-60" d="M48.42,104H43.71a2.49,2.49,0,0,1-2.48-2.48V96.83a2.48,2.48,0,0,1,2.48-2.48h4.71a2.48,2.48,0,0,1,2.47,2.48v4.71A2.48,2.48,0,0,1,48.42,104Zm-4.71-8.67a1.49,1.49,0,0,0-1.48,1.48v4.71A1.48,1.48,0,0,0,43.71,103h4.71a1.47,1.47,0,0,0,1.47-1.47V96.83a1.48,1.48,0,0,0-1.47-1.48Z"/><path class="cls-60" d="M48.42,118H43.71a2.48,2.48,0,0,1-2.48-2.48V110.8a2.49,2.49,0,0,1,2.48-2.48h4.71a2.48,2.48,0,0,1,2.47,2.48v4.71A2.48,2.48,0,0,1,48.42,118Zm-4.71-8.66a1.48,1.48,0,0,0-1.48,1.47v4.71A1.49,1.49,0,0,0,43.71,117h4.71a1.48,1.48,0,0,0,1.47-1.48V110.8a1.47,1.47,0,0,0-1.47-1.47Z"/><rect class="cls-60" x="60.47" y="81.66" width="27.15" height="0.98" rx="0.49"/><rect class="cls-60" x="55.76" y="84.52" width="31.86" height="0.98" rx="0.49"/><rect class="cls-60" x="55.76" y="87.38" width="28.72" height="0.98" rx="0.49"/><rect class="cls-60" x="60.47" y="95.37" width="27.15" height="0.98" rx="0.49"/><rect class="cls-60" x="55.76" y="98.22" width="31.86" height="0.98" rx="0.49"/><rect class="cls-60" x="60.47" y="109.81" width="27.15" height="0.98" rx="0.49"/><rect class="cls-60" x="55.76" y="112.67" width="31.86" height="0.98" rx="0.49"/><path class="cls-60" d="M56.1,116.51c-.19,0-.34-.21-.34-.45V116c0-.25.15-.45.34-.45H81c.19,0,.34.2.34.45v.09c0,.24-.15.45-.34.45Z"/><path class="cls-60" d="M87.52,126H42.62a.45.45,0,0,1-.39-.49h0a.45.45,0,0,1,.39-.49h44.9a.45.45,0,0,1,.39.49h0A.45.45,0,0,1,87.52,126Z"/><path class="cls-60" d="M70.82,128.81H42.69a.48.48,0,0,1-.46-.49h0a.48.48,0,0,1,.46-.49H70.82a.47.47,0,0,1,.45.49h0A.47.47,0,0,1,70.82,128.81Z"/><path class="cls-60" d="M70.82,134.65H42.69a.48.48,0,0,1-.46-.49h0a.48.48,0,0,1,.46-.49H70.82a.47.47,0,0,1,.45.49h0A.47.47,0,0,1,70.82,134.65Z"/><path class="cls-60" d="M84.88,131.67H42.62a.45.45,0,0,1-.39-.49h0a.45.45,0,0,1,.39-.49H84.88a.45.45,0,0,1,.38.49h0A.45.45,0,0,1,84.88,131.67Z"/><path class="cls-17" d="M45.82,87.06a.58.58,0,0,1-.39-.15l-1.88-1.64a.6.6,0,0,1-.06-.83.59.59,0,0,1,.83-.06l1.45,1.27,5.39-5.93a.6.6,0,0,1,.83,0,.59.59,0,0,1,0,.83l-5.78,6.35A.57.57,0,0,1,45.82,87.06Z"/><path class="cls-17" d="M45.82,101.16a.62.62,0,0,1-.39-.14l-1.88-1.65a.6.6,0,0,1-.06-.83.59.59,0,0,1,.83-.05l1.45,1.26,5.39-5.92a.59.59,0,0,1,.87.79L46.25,101A.56.56,0,0,1,45.82,101.16Z"/><path class="cls-17" d="M45.82,114.54a.58.58,0,0,1-.39-.15l-1.88-1.64a.59.59,0,0,1,.77-.89l1.45,1.27,5.39-5.92A.59.59,0,0,1,52,108l-5.78,6.35A.59.59,0,0,1,45.82,114.54Z"/><path class="cls-61" d="M61.46,106.53a4.59,4.59,0,0,1,.09,1.13l1,.2c-.13-.77-.24-1.37-.25-1.51,0-.35.21-1.29.08-1.54a4.85,4.85,0,0,0-1-1.09c-.29-.18-.26-.13-1-.12s-.52.55-.39.6.9.1,1.07.35-.11.72-.11.72a3.32,3.32,0,0,1-.64-.37C60.27,104.78,61.3,106.18,61.46,106.53Z"/><polygon class="cls-37" points="57.31 102.97 56.84 102.12 57.81 102.17 57.31 102.97"/><polygon class="cls-40" points="56.94 102.34 56.84 102.12 57.09 102.12 56.94 102.34"/><rect class="cls-37" x="64.36" y="106.35" width="0.94" height="1.54" rx="0.47" transform="translate(-60.37 105.35) rotate(-58.01)"/><polygon class="cls-7" points="57.48 102.71 64.3 106.98 64.13 107.24 57.31 102.97 57.48 102.71"/><polygon class="cls-7" points="57.64 102.44 64.46 106.71 64.3 106.98 57.48 102.71 57.64 102.44"/><polygon class="cls-7" points="57.81 102.17 64.63 106.44 64.46 106.71 57.64 102.44 57.81 102.17"/><rect class="cls-45" x="63.89" y="106.74" width="0.94" height="0.19" transform="translate(-60.34 104.81) rotate(-58.01)"/><path class="cls-61" d="M61,104.09l0,0c.29.21.59.39.89.59h0a.85.85,0,0,0,0-.34,3.62,3.62,0,0,0-.79-.83,1.27,1.27,0,0,0-.88-.21c-.54,0-.49.24-.38.28s1,.28,1.13.47Z"/><path class="cls-61" d="M62.33,106.23l-.41-.36a2.59,2.59,0,0,0-.52-.42l0,0-.35-.15a3.34,3.34,0,0,1-.65-.37c-.1-.12.94,1.29,1.09,1.63a2.16,2.16,0,0,1,.08.56h.91c-.06-.39-.11-.66-.12-.74Z"/><path class="cls-61" d="M62.37,106.69c0-.15.07-.43,0-.5l-.42-.35-.49-.38s-.5-.41-.53-.57-.28-.74-.73-.81,0,.69.21,1.31.66,1,.66,1.39a1.73,1.73,0,0,0,.39,1.13C61.75,108.06,62.39,106.87,62.37,106.69Z"/><path class="cls-37" d="M74.79,110.21a1.19,1.19,0,0,1,0,1.66c-.79.93-4.78,5.43-4.78,5.43-3.24,4.91-5.59,1.78-5.59,1.78-.6-1.12-.44-2.72,2.29-4.55Z"/><path class="cls-37" d="M61.66,106.68l.5-.12a1.15,1.15,0,0,1,1.25,1,29.92,29.92,0,0,0,1.7,4.57v0l.8,1.65c1.21,2.47,2.32,5,1,5.83,0,0-2.34,2-4.33-4.56l-.46-1.79v0c-.53-2-.94-4.06-1.13-5.34A1,1,0,0,1,61.66,106.68Z"/><path class="cls-61" d="M82.94,169.86a1.05,1.05,0,0,1,0,.51,3.24,3.24,0,0,1-1.46,1.72,2.4,2.4,0,0,0-1,.75l2.72-.71,1.42-1.81a6,6,0,0,0-.26-1.19,1.8,1.8,0,0,0-.83-.9l-1,.44Z"/><path class="cls-61" d="M79.45,139.55c.26,3.18-.83,8.44-1,9.73.15.38,5.48,17,6.08,19.9a2.06,2.06,0,0,1-1.6.68c-2.16-2.58-9.75-17.14-10.09-18,0,0-1-3.33-1.52-5.19a35.09,35.09,0,0,1-1.51-6.83C69.53,136.57,79.1,135.36,79.45,139.55Z"/><path class="cls-62" d="M74.42,135.4a24.82,24.82,0,0,1,1.1,7.57c.06,2.59.42,2.62,0,5.18-.32,2.07-1.23,4.49-1.44,6.2A36.61,36.61,0,0,1,71,146.93a46.8,46.8,0,0,1-1.62-11.21,14.46,14.46,0,0,1,.12-1.9C71.14,134.32,72.78,134.85,74.42,135.4Z"/><path class="cls-61" d="M64.52,144.76c.26-3,8.51-2.07,8,.11a20.19,20.19,0,0,1-2.71,5.84c0,.67.86,15.62.41,20.93,0,0-1.12.9-1.84.48a132.4,132.4,0,0,1-2.93-14.4v0l-1.11-6A61.67,61.67,0,0,1,64.52,144.76Z"/><path class="cls-63" d="M78.92,148.93c-3.69.81-7.56,1.55-11.28.75a30.3,30.3,0,0,1-3.73-1.08c0-1.72.11-3.45.19-4.92a63.78,63.78,0,0,1,1.56-11.11c.8-3.17,2.11-5.46,5-4.84l.16,0a3.29,3.29,0,0,1,2.42-1.64s.1-.33.76-.11c1.18.38,6.33,2.74,6.63,7.43.23,3.55-1.3,9.84-1.54,13.35C79,147.46,79,148.19,78.92,148.93Z"/><path class="cls-62" d="M59.63,133.93l-1.67.69a.25.25,0,0,1-.17,0l-.43-.09h-.13l-.26.07a.26.26,0,0,1-.15,0l-.54-.18a.26.26,0,0,1-.15-.12l-.08-.14,3.42-.76a.28.28,0,0,1,.33.22h0A.27.27,0,0,1,59.63,133.93Z"/><path class="cls-61" d="M61.79,133.19l-.54.85-.09.12-1.32,1.49a.08.08,0,0,1-.14,0v-.19a.73.73,0,0,1,.08-.36l.26-.53-.13-.35a.56.56,0,0,0-.36-.31l-.44.06-1.59.14a1.13,1.13,0,0,1-.45,0l-.21-.06c-.06,0-.06-.1,0-.13l1.92-.68,2.18-.77,1-.1.33.55Z"/><path class="cls-61" d="M73.06,111.52l-2.8-.25a10.51,10.51,0,0,0-.23-3.74l2.92-.29S73.67,110.22,73.06,111.52Z"/><path class="cls-18" d="M81.76,171.85c.38,0,.74-.75.89-.87,0,.12.15.43.29.36.61-.41.51-1.62.51-1.63h0s.45-.76.74-.85a.35.35,0,0,1,.47.18,2.07,2.07,0,0,1,.18.68l.73,2s0,.54-.53.13l-.61-.76a3.29,3.29,0,0,1-.44.74,6.07,6.07,0,0,1-2.68,1.34C79.23,173.72,80.66,171.89,81.76,171.85Z"/><path class="cls-61" d="M68.43,172.24a1.31,1.31,0,0,1-.1.53,3.22,3.22,0,0,1-1.79,1.37,2.42,2.42,0,0,0-1.17.53l2.8-.16,1.75-1.5a3.81,3.81,0,0,0,.2-1.42c-.08-.61-.86-.84-.86-.84l-1.05.24Z"/><path class="cls-18" d="M66.87,174c.37,0,1-.73,1.2-.83-.06.11-.3.48-.09.39.68-.29,1-1.32,1-1.33h0s.59-.66.89-.69.35.11.43.27a2.27,2.27,0,0,1,0,.7l.32,2.15s-.16.52-.55,0l-.45-.87a3,3,0,0,1-.57.64,6,6,0,0,1-2.89.79C64,175.3,65.78,173.79,66.87,174Z"/><path class="cls-18" d="M80.19,130.84s-3.7,3.91-14.3.64c0,0,2.4-9.93,2.07-11.22s-1.36-1.56-1.07-2.55a35.12,35.12,0,0,1,3.12-7c.55-.65,2.48-.16,3.68-.65-.1.7.29,1.26,1,1.19a2.16,2.16,0,0,0,2-1.85c3.32,1.13,4.68,3.46,4.56,4.61-.28,2.78-2.51,9.82-2.51,11.07A31.75,31.75,0,0,0,80.19,130.84Z"/><path class="cls-37" d="M73.71,116.4c0-1.74-.93-3.23-2.14-3.33l-.41,0c-1.21-.1-2.22,1.23-2.25,3l0,1.5v0a74.26,74.26,0,0,0,.8,10.06c.1.94,1.26,1.25,2.22.26,1.43-1.48,1.75-6,1.78-9.93v0Z"/><path class="cls-37" d="M61.08,132.93l.51.69a.87.87,0,0,0,1.11.19c1.68-.87,5.2-3.16,5.2-3.16,6.21-3.19,4.06-4.52,4.06-4.52-.79-1.18-2.65-1.33-5.52,1.37,0,0-3.24,2.66-5.18,4.09A1,1,0,0,0,61.08,132.93Z"/><path class="cls-61" d="M69.38,106.92c0,1,.49,3.13,1.59,3.09.87,0,.86.85,1.44.59a4.08,4.08,0,0,0,2.46-3.86c-.06-1.83-1.78-3.8-3.3-3.75S69.32,105.08,69.38,106.92Z"/><path class="cls-64" d="M83.1,115.56c-1.86-1.67-1.54-2.44-.91-5.45s-.66-3.49-1.38-3.62a8.85,8.85,0,0,1-3.29-1.18c-.34-.3-.66-.56-1-.79a6,6,0,0,0-4.76-2.36c-3.48.12-1.07,1.54-1.07,2.42a5.68,5.68,0,0,0,.11,1,2.42,2.42,0,0,0,.2,1.49,1.21,1.21,0,0,1-.07.33c.2.07.16.33.11.62a5.49,5.49,0,0,0-1.65,6.87,4.27,4.27,0,0,1,.21,4.57c-.87,1.85.15,4.68,2.78,5.74s5.93,2.25,10-1.95S85,117.22,83.1,115.56Z"/><path class="cls-61" d="M71.43,106.35c0,.8-.06,1.25-.36,1.28-.62.05-.6-.86-.56-1.39s.28-.9.59-.88S71.45,105.75,71.43,106.35Z"/><path class="cls-65" d="M74.53,63.49H54.62a1.22,1.22,0,0,1-1.21-1.21h0a1.21,1.21,0,0,1,1.2-1.21H74.52a1.21,1.21,0,0,1,1.2,1.21h0A1.2,1.2,0,0,1,74.53,63.49Z"/><rect class="cls-65" x="56.71" y="65.18" width="19.01" height="0.7" rx="0.35"/><rect class="cls-65" x="53.41" y="67.23" width="22.31" height="0.7" rx="0.35"/><rect class="cls-65" x="53.41" y="69.27" width="20.11" height="0.7" rx="0.35"/><ellipse class="cls-17" cx="65.47" cy="46.89" rx="10.19" ry="10.32" transform="translate(-5.34 8.54) rotate(-7.17)"/><ellipse class="cls-66" cx="64.24" cy="46.93" rx="10.54" ry="10.13" transform="translate(-15.18 42.18) rotate(-32.73)"/><g class="cls-67"><path class="cls-55" d="M65.74,41.22c.38-.07,0-.66-.32-.89a3,3,0,0,0-1.16-.51c-1.77-.39-1.47,3.34-3.24,3.85a2.58,2.58,0,0,0-1.85,2.43c-.07.81-.94,1.3-1.84,1.88-2.31,1.48-1.76,5.37-.06,5.5a1.44,1.44,0,0,0,2.33,1.44c.52.89,2.24,1.53,4.64,1.18C68,55.55,62.35,46,63.4,45.58c1.53-.55,1.3-1.36,1.12-2.28a7.71,7.71,0,0,1-.19-1.36C64.31,40.1,65.16,41.33,65.74,41.22Z"/><path class="cls-55" d="M64.33,39.36A3.09,3.09,0,0,0,63,40a4.11,4.11,0,0,0-.84,1.13c-.74,1.65,1.59,2.86,3.44,4.25s-1,10.84,2.15,10.55a3.84,3.84,0,0,0,3.58-3.87c1.6-.44,1.35-2.46.2-4a13.42,13.42,0,0,0-2.86-2.31,2.54,2.54,0,0,1-.88-2.35c0-1.62-.5-1.52-1.2-2.18-.36-.34.13-1-.76-1.61A2.06,2.06,0,0,0,64.33,39.36Z"/><path class="cls-68" d="M59.29,47.74c.38-1.23,1.4-2,2.27-1.75l.29.09c.88.27,1.28,1.49.9,2.73l-.33,1.06v0A24.37,24.37,0,0,1,59,56.6c-.27.28-.51.36-.66.32s-.29-.25-.36-.63a24.11,24.11,0,0,1,1-7.47h0Z"/><path class="cls-68" d="M68.76,47.75c-.35-1.24-1.35-2-2.23-1.8l-.29.08c-.88.24-1.32,1.45-1,2.7l.3,1.07v0a24.27,24.27,0,0,0,3.22,6.8c.26.29.5.37.64.33s.31-.24.39-.62a24.54,24.54,0,0,0-.77-7.49h0Z"/><path class="cls-44" d="M60.9,54.88l6.35.13.8-6.15a3.14,3.14,0,0,0-2.69-3.51l-.87-.11-1.55.23a3.13,3.13,0,0,0-2.66,3.41Z"/><path class="cls-61" d="M65.17,45.09l.4,1.1-1.21.52-1.21-.39.39-1.23c0-.05.16-1.62.16-1.62l1.72.1S65,44.83,65.17,45.09Z"/><path class="cls-62" d="M63.64,44.13c.13.32.45,1.07.85,1.11a1.16,1.16,0,0,0,.66-.2,5.13,5.13,0,0,1,.27-1.47l-1.72-.1s0,.31-.06.66Z"/><path class="cls-61" d="M66,42.49c-.05,1.17-.77,2.1-1.61,2.06S63,43.54,63,42.36s.77-2.1,1.61-2.06S66.09,41.31,66,42.49Z"/><path class="cls-55" d="M64.35,41.57c-.52.58-1.18.84-1.48.57s-.14-1,.37-1.54,1.18-.84,1.48-.57S64.86,41,64.35,41.57Z"/><path class="cls-61" d="M62.41,42.69c.06.32.25.55.43.51s.27-.31.21-.63-.25-.55-.43-.51S62.35,42.38,62.41,42.69Z"/><path class="cls-61" d="M65.62,42.57c-.06.32,0,.6.21.63s.38-.19.44-.51,0-.6-.21-.63S65.69,42.25,65.62,42.57Z"/><path class="cls-68" d="M65.57,45.17a.73.73,0,0,0-.42-.14s.47,1.41-.8,1.57a1.1,1.1,0,0,1-.8-1.55s.05-.15-.58.19c0,0-1,1.56-.76,2s2.14-.52,2.14-.52l1.38.53a.39.39,0,0,0,.51-.26C66.4,46.47,65.83,45.48,65.57,45.17Z"/><path class="cls-55" d="M64.71,40.25s.25,0,.46.54.43,1.27,1.06,1.32.4-.31.4-.31L66,41S65.87,40.11,64.71,40.25Z"/></g></g></g></g></svg>